<mxfile host="app.diagrams.net" modified="2023-07-21T05:27:44.318Z" agent="Mozilla/5.0 (Windows NT 10.0; Win64; x64) AppleWebKit/537.36 (KHTML, like Gecko) Chrome/115.0.0.0 Safari/537.36" version="21.6.1" etag="AjrqYLc9lfnm28LWvknO" type="github">
  <diagram name="Page-1" id="_lQ5nSFPoXkBFzVEkj34">
    <mxGraphModel>
      <root>
        <mxCell id="0" />
        <mxCell id="1" parent="0" />
      </root>
    </mxGraphModel>
  </diagram>
</mxfile>
